<svg aria-hidden="true" style="position: absolute; width: 0; height: 0; overflow: hidden;" version="1.1" xmlns="http://www.w3.org/2000/svg" xmlns:xlink="http://www.w3.org/1999/xlink">
<defs>
<symbol id="icon-Arrow-right" viewBox="0 0 245 32">
<path fill="#6e788d" style="fill: var(--color1, #6e788d)" d="M241.508 17.509c0.834-0.833 0.834-2.184 0-3.017l-13.576-13.576c-0.834-0.833-2.184-0.833-3.017 0s-0.833 2.184 0 3.017l12.068 12.068-12.068 12.068c-0.833 0.833-0.833 2.184 0 3.017s2.183 0.833 3.017 0l13.576-13.576zM0 18.133h240v-4.267h-240v4.267z"></path>
</symbol>
<symbol id="icon-Arrow-left" viewBox="0 0 245 32">
<path fill="#6e788d" style="fill: var(--color1, #6e788d)" d="M3.825 17.509c-0.833-0.833-0.833-2.184 0-3.017l13.576-13.576c0.833-0.833 2.184-0.833 3.017 0s0.833 2.184 0 3.017l-12.068 12.068 12.068 12.068c0.833 0.833 0.833 2.184 0 3.017s-2.184 0.833-3.017 0l-13.576-13.576zM245.333 18.133h-240v-4.267h240v4.267z"></path>
</symbol>
</defs>
</svg>
