<svg aria-hidden="true" style="position: absolute; width: 0; height: 0; overflow: hidden;" version="1.1" xmlns="http://www.w3.org/2000/svg" xmlns:xlink="http://www.w3.org/1999/xlink">
<defs>
<symbol id="icon-manual" viewBox="0 0 33 32">
<path fill="#fff" style="fill: var(--color1, #fff)" d="M29.993 17.017c-0.362 0-0.702 0.092-1 0.254-0.304-0.785-1.067-1.343-1.958-1.343-0.576 0-1.099 0.234-1.479 0.611-0.38-0.377-0.902-0.611-1.479-0.611-0.306 0-0.596 0.066-0.858 0.184v-1.794c0.019 0.002 0.039 0.003 0.058 0.003h5.153c1.061 0 1.925-0.863 1.925-1.925v-2.67c0-0.343-0.278-0.621-0.621-0.621s-0.621 0.278-0.621 0.621v2.67c0 0.377-0.306 0.683-0.683 0.683h-5.153c-0.020 0-0.039 0.001-0.058 0.003v-1.329c0-1.158-0.942-2.1-2.1-2.1s-2.1 0.942-2.1 2.1v1.326h-0.895c-0.377 0-0.683-0.306-0.683-0.683v-10.306c0-0.377 0.306-0.683 0.683-0.683h10.306c0.377 0 0.683 0.306 0.683 0.683v2.67c0 0.343 0.278 0.621 0.621 0.621s0.621-0.278 0.621-0.621v-2.67c0-1.061-0.863-1.925-1.925-1.925h-10.306c-1.061 0-1.925 0.863-1.925 1.925v10.306c0 1.061 0.863 1.925 1.925 1.925h0.895v5.266l-2.139 3.136c-0.718 1.052-0.828 2.422-0.287 3.575l2.485 5.297c0.106 0.225 0.329 0.357 0.563 0.357 0.088 0 0.178-0.019 0.263-0.059 0.31-0.146 0.444-0.515 0.298-0.826l-2.485-5.297c-0.355-0.757-0.283-1.657 0.188-2.348l1.114-1.633v1.174c0 0.343 0.278 0.621 0.621 0.621s0.621-0.278 0.621-0.621v-11.211c0-0.473 0.385-0.858 0.858-0.858s0.858 0.385 0.858 0.858v9.17c0 0.343 0.278 0.621 0.621 0.621s0.621-0.278 0.621-0.621v-2.895c0-0.473 0.385-0.858 0.858-0.858s0.858 0.385 0.858 0.858v2.895c0 0.343 0.278 0.621 0.621 0.621s0.621-0.278 0.621-0.621v-2.895c0-0.473 0.385-0.858 0.858-0.858s0.858 0.385 0.858 0.858v2.895c0 0.343 0.278 0.621 0.621 0.621s0.621-0.278 0.621-0.621v-1.805c0-0.473 0.385-0.858 0.858-0.858s0.858 0.385 0.858 0.858v5.19c0 1.382-0.21 2.752-0.623 4.071l-0.868 2.767c-0.103 0.327 0.079 0.675 0.407 0.778 0.062 0.019 0.124 0.029 0.186 0.029 0.264-0 0.509-0.17 0.592-0.435l0.868-2.767c0.451-1.439 0.68-2.934 0.68-4.443v-5.19c0-1.158-0.942-2.1-2.1-2.1z"></path>
<path fill="#fff" style="fill: var(--color1, #fff)" d="M12.538 0.165h-10.306c-1.061 0-1.925 0.863-1.925 1.925v10.306c0 1.061 0.863 1.925 1.925 1.925h2.67c0.343 0 0.621-0.278 0.621-0.621s-0.278-0.621-0.621-0.621h-2.67c-0.377 0-0.683-0.306-0.683-0.683v-10.306c0-0.377 0.306-0.683 0.683-0.683h10.306c0.377 0 0.683 0.306 0.683 0.683v10.306c0 0.377-0.306 0.683-0.683 0.683h-2.67c-0.343 0-0.621 0.278-0.621 0.621s0.278 0.621 0.621 0.621h2.67c1.061 0 1.925-0.863 1.925-1.925v-10.306c0-1.061-0.863-1.925-1.925-1.925z"></path>
<path fill="#fff" style="fill: var(--color1, #fff)" d="M10.004 9.862c0.242-0.242 0.242-0.636 0-0.878l-1.741-1.741 1.741-1.741c0.242-0.242 0.242-0.636 0-0.878s-0.635-0.242-0.878 0l-1.741 1.741-1.741-1.741c-0.242-0.242-0.635-0.242-0.878 0s-0.242 0.636 0 0.878l1.741 1.741-1.741 1.741c-0.242 0.242-0.242 0.636 0 0.878 0.121 0.121 0.28 0.182 0.439 0.182s0.318-0.061 0.439-0.182l1.741-1.741 1.741 1.741c0.121 0.121 0.28 0.182 0.439 0.182s0.318-0.061 0.439-0.182z"></path>
<path fill="#fff" style="fill: var(--color1, #fff)" d="M26.036 4.216l-3.094 3.094-1.299-1.299c-0.242-0.242-0.635-0.242-0.878 0s-0.242 0.636 0 0.878l1.738 1.738c0.121 0.121 0.28 0.182 0.439 0.182s0.318-0.061 0.439-0.182l3.533-3.533c0.242-0.242 0.242-0.636 0-0.878s-0.635-0.242-0.878 0z"></path>
<path fill="#fff" style="fill: var(--color1, #fff)" d="M7.384 13.078c-0.163 0-0.323 0.066-0.439 0.182s-0.182 0.276-0.182 0.439 0.066 0.323 0.182 0.439c0.115 0.116 0.276 0.182 0.439 0.182s0.323-0.066 0.439-0.182c0.115-0.115 0.182-0.276 0.182-0.439s-0.066-0.323-0.182-0.439c-0.115-0.116-0.276-0.182-0.439-0.182z"></path>
<path fill="#fff" style="fill: var(--color1, #fff)" d="M29.734 6.622c-0.163 0-0.323 0.066-0.439 0.182s-0.182 0.276-0.182 0.439c0 0.164 0.066 0.323 0.182 0.439s0.276 0.182 0.439 0.182 0.323-0.066 0.439-0.182c0.116-0.115 0.182-0.276 0.182-0.439s-0.066-0.323-0.182-0.439c-0.115-0.116-0.276-0.182-0.439-0.182z"></path>
</symbol>
<symbol id="icon-reg" viewBox="0 0 31 32">
<path fill="#fff" style="fill: var(--color1, #fff)" d="M25.28 9.702c0.333 0 0.603-0.27 0.603-0.603v-6.554c0-0.997-0.811-1.808-1.808-1.808h-21.939c-0.997 0-1.808 0.811-1.808 1.808v27.243c0 0.997 0.811 1.808 1.808 1.808h21.939c0.997 0 1.808-0.811 1.808-1.808v-4.44c0-0.333-0.27-0.603-0.603-0.603s-0.603 0.27-0.603 0.603v4.44c0 0.332-0.27 0.603-0.603 0.603h-21.939c-0.332 0-0.603-0.27-0.603-0.603v-27.243c0-0.332 0.27-0.603 0.603-0.603h21.939c0.332 0 0.603 0.27 0.603 0.603v6.555c0 0.333 0.27 0.603 0.603 0.603z"></path>
<path fill="#fff" style="fill: var(--color1, #fff)" d="M13.104 3.992c-3.057 0-5.545 2.487-5.545 5.545 0 1.586 0.67 3.019 1.741 4.030 0.020 0.021 0.041 0.042 0.065 0.060 0.987 0.903 2.3 1.454 3.739 1.454s2.753-0.552 3.739-1.454c0.023-0.018 0.045-0.039 0.065-0.060 1.071-1.012 1.741-2.444 1.741-4.030 0-3.057-2.487-5.545-5.545-5.545zM13.104 13.876c-0.984 0-1.892-0.33-2.621-0.884 0.53-0.939 1.518-1.527 2.621-1.527s2.092 0.587 2.621 1.527c-0.729 0.554-1.637 0.884-2.621 0.884zM12.14 9.296v-0.392c0-0.532 0.433-0.964 0.964-0.964s0.964 0.433 0.964 0.964v0.392c0 0.532-0.433 0.964-0.964 0.964s-0.964-0.433-0.964-0.964zM16.596 12.109c-0.445-0.659-1.061-1.172-1.776-1.489 0.284-0.367 0.453-0.826 0.453-1.325v-0.392c0-1.197-0.973-2.17-2.17-2.17s-2.17 0.973-2.17 2.17v0.392c0 0.499 0.17 0.958 0.453 1.325-0.715 0.317-1.331 0.829-1.776 1.489-0.532-0.72-0.847-1.61-0.847-2.573 0-2.393 1.947-4.34 4.34-4.34s4.34 1.947 4.34 4.34c0 0.962-0.315 1.852-0.847 2.573z"></path>
<path fill="#fff" style="fill: var(--color1, #fff)" d="M16.359 27.136h-3.255c-0.333 0-0.603 0.27-0.603 0.603s0.27 0.603 0.603 0.603h3.255c0.333 0 0.603-0.27 0.603-0.603s-0.27-0.603-0.603-0.603z"></path>
<path fill="#fff" style="fill: var(--color1, #fff)" d="M16.359 23.761h-8.559c-0.333 0-0.603 0.27-0.603 0.603s0.27 0.603 0.603 0.603h8.559c0.333 0 0.603-0.27 0.603-0.603s-0.27-0.603-0.603-0.603z"></path>
<path fill="#fff" style="fill: var(--color1, #fff)" d="M16.359 20.386h-8.559c-0.333 0-0.603 0.27-0.603 0.603s0.27 0.603 0.603 0.603h8.559c0.333 0 0.603-0.27 0.603-0.603s-0.27-0.603-0.603-0.603z"></path>
<path fill="#fff" style="fill: var(--color1, #fff)" d="M5.652 17.187c-0.112-0.112-0.268-0.177-0.427-0.177s-0.314 0.064-0.426 0.177c-0.112 0.112-0.177 0.268-0.177 0.426s0.064 0.314 0.177 0.426c0.113 0.112 0.268 0.177 0.426 0.177s0.314-0.064 0.427-0.177c0.112-0.112 0.177-0.268 0.177-0.426s-0.064-0.314-0.177-0.426z"></path>
<path fill="#fff" style="fill: var(--color1, #fff)" d="M5.652 20.562c-0.113-0.112-0.268-0.177-0.427-0.177s-0.313 0.064-0.426 0.177c-0.112 0.112-0.177 0.268-0.177 0.426s0.064 0.314 0.177 0.426c0.113 0.112 0.268 0.177 0.426 0.177s0.314-0.065 0.427-0.177c0.112-0.112 0.177-0.268 0.177-0.426s-0.064-0.314-0.177-0.426z"></path>
<path fill="#fff" style="fill: var(--color1, #fff)" d="M5.652 23.937c-0.113-0.112-0.268-0.177-0.427-0.177s-0.313 0.064-0.426 0.177c-0.112 0.112-0.177 0.268-0.177 0.426s0.064 0.314 0.177 0.426c0.112 0.112 0.268 0.177 0.426 0.177s0.315-0.065 0.427-0.177c0.112-0.112 0.177-0.268 0.177-0.426s-0.064-0.314-0.177-0.426z"></path>
<path fill="#fff" style="fill: var(--color1, #fff)" d="M16.359 17.010h-8.559c-0.333 0-0.603 0.27-0.603 0.603s0.27 0.603 0.603 0.603h8.559c0.333 0 0.603-0.27 0.603-0.603s-0.27-0.603-0.603-0.603z"></path>
<path fill="#fff" style="fill: var(--color1, #fff)" d="M29.919 8.592c-0.586-0.338-1.268-0.428-1.921-0.253s-1.199 0.594-1.537 1.179l-7.585 13.137c-0.042 0.072-0.068 0.152-0.077 0.235l-0.534 4.782c-0.026 0.238 0.090 0.469 0.298 0.589 0.094 0.054 0.198 0.081 0.301 0.081 0.126 0 0.252-0.040 0.357-0.117l3.875-2.854c0.067-0.049 0.123-0.112 0.165-0.184l7.585-13.137c0.698-1.209 0.282-2.76-0.927-3.458zM19.617 26.436l0.279-2.497 1.744 1.007-2.023 1.49zM22.519 24.062l-2.297-1.326 6.086-10.542 2.297 1.326-6.086 10.542zM29.802 11.447l-0.594 1.029-2.297-1.326 0.594-1.029c0.177-0.307 0.463-0.526 0.805-0.618s0.7-0.045 1.006 0.133c0.307 0.177 0.526 0.463 0.618 0.805s0.045 0.699-0.132 1.006z"></path>
</symbol>
<symbol id="icon-allNews" viewBox="0 0 31 32">
<path fill="#fff" style="fill: var(--color1, #fff)" d="M26.178 8.013h-17.226l14.365-5.716c0.331-0.132 0.492-0.507 0.361-0.838s-0.507-0.492-0.838-0.361l-17.361 6.915h-0.49c-2.275 0-4.93 1.289-4.93 4.93v13.301c0 3.641 2.655 4.93 4.93 4.93h21.189c2.275 0 4.93-1.289 4.93-4.93v-13.295c0.006-3.641-2.636-4.937-4.93-4.937zM29.826 26.244c0 3.287-2.578 3.641-3.641 3.641h-21.196c-1.096 0-3.641-0.355-3.641-3.641v-13.295c0-3.287 2.578-3.641 3.641-3.641h21.189c1.096 0 3.641 0.355 3.641 3.641l0.006 13.295z"></path>
<path fill="#fff" style="fill: var(--color1, #fff)" d="M6.439 16.346h18.289c0.356 0 0.645-0.289 0.645-0.645v-3.718c0-0.356-0.289-0.645-0.645-0.645h-18.289c-0.356 0-0.645 0.289-0.645 0.645v3.718c0 0.356 0.289 0.645 0.645 0.645zM24.084 15.057h-4.556v-2.43h4.556v2.43zM7.084 12.627h11.156v2.43h-11.155v-2.43z"></path>
<path fill="#fff" style="fill: var(--color1, #fff)" d="M23.046 18.53c-2.641 0-4.782 2.141-4.782 4.782s2.141 4.782 4.782 4.782c2.641 0 4.782-2.141 4.782-4.782s-2.141-4.782-4.782-4.782zM23.046 26.805c-1.929 0-3.493-1.564-3.493-3.493s1.564-3.493 3.493-3.493c1.929 0 3.493 1.564 3.493 3.493-0.004 1.928-1.566 3.489-3.493 3.493z"></path>
<path fill="#fff" style="fill: var(--color1, #fff)" d="M13.76 22.996c-1.363 0-2.468 1.105-2.468 2.468s1.105 2.468 2.468 2.468 2.468-1.105 2.468-2.468c0-1.363-1.105-2.468-2.468-2.468zM13.76 26.638c-0.651 0-1.179-0.528-1.179-1.179s0.528-1.18 1.179-1.18c0.652 0 1.179 0.528 1.179 1.18 0 0.651-0.527 1.179-1.179 1.179z"></path>
<path fill="#fff" style="fill: var(--color1, #fff)" d="M7.367 22.996c-1.363 0-2.468 1.105-2.468 2.468s1.105 2.468 2.468 2.468 2.468-1.105 2.468-2.468c0-1.363-1.105-2.468-2.468-2.468zM7.367 26.638c-0.651 0-1.179-0.528-1.179-1.179s0.528-1.18 1.179-1.18 1.179 0.528 1.179 1.18c0 0.651-0.528 1.179-1.179 1.179z"></path>
</symbol>
</defs>
</svg>
