<svg aria-hidden="true" style="position: absolute; width: 0; height: 0; overflow: hidden;" version="1.1" xmlns="http://www.w3.org/2000/svg" xmlns:xlink="http://www.w3.org/1999/xlink">
<defs>
<symbol id="icon-Arrow-right" viewBox="0 0 245 32">
<path fill="#6e788d" style="fill: var(--color1, #6e788d)" d="M241.508 17.509c0.834-0.833 0.834-2.184 0-3.017l-13.576-13.576c-0.834-0.833-2.184-0.833-3.017 0s-0.833 2.184 0 3.017l12.068 12.068-12.068 12.068c-0.833 0.833-0.833 2.184 0 3.017s2.183 0.833 3.017 0l13.576-13.576zM0 18.133h240v-4.267h-240v4.267z"></path>
</symbol>
<symbol id="icon-Arrow-green" viewBox="0 0 152 32">
<path fill="#86bc42" style="fill: var(--color2, #86bc42)" d="M149.414 17.414c0.781-0.781 0.781-2.047 0-2.828l-12.728-12.728c-0.781-0.781-2.048-0.781-2.828 0s-0.781 2.047 0 2.828l11.314 11.314-11.314 11.314c-0.781 0.781-0.781 2.047 0 2.828s2.047 0.781 2.828 0l12.728-12.728zM0 18h148v-4h-148v4z"></path>
</symbol>
<symbol id="icon-call-ansver-footer" viewBox="0 0 32 32">
<path fill="none" stroke="#86bc42" style="stroke: var(--color2, #86bc42)" stroke-linejoin="miter" stroke-linecap="butt" stroke-miterlimit="4" stroke-width="1" d="M2.416 2.233l-0.263 0.336c-0.435 0.555-0.801 1.199-1.075 1.896-0.254 0.669-0.409 1.301-0.48 1.93l-0 0.004c-0.624 5.174 1.708 9.971 8.386 16.649 9.11 9.109 16.401 8.422 16.66 8.395 0.659-0.079 1.289-0.236 1.933-0.486 0.691-0.27 1.335-0.636 1.891-1.071l0.267-0.209 1.131-1.107c0.833-0.837 0.838-2.15 0.064-2.927l-4.941-4.941c-0.777-0.774-2.091-0.768-2.927 0.068v0l-2.756 2.755-0.329-0.181c-0.158-0.087-0.322-0.178-0.494-0.275-1.579-0.875-3.782-2.097-6.098-4.414-0-0-0-0-0-0M2.416 2.233l6.987 10.077c0.873 1.572 2.068 3.724 4.335 5.99l-0.354 0.353M2.416 2.233l1.052-1.058c0-0 0-0 0-0 0.837-0.837 2.151-0.842 2.925-0.068 0 0 0 0 0 0l4.942 4.943c0.775 0.776 0.771 2.089-0.066 2.926l-0 0-0.822 0.823-1.941 1.938 0.19 0.332c0.073 0.128 0.147 0.261 0.225 0.403 0.013 0.024 0.026 0.047 0.039 0.071l0 0.001 0.008 0.014c0.877 1.578 2.099 3.779 4.415 6.095M2.416 2.233l10.968 16.421"></path>
</symbol>
<symbol id="icon-call-answer1" viewBox="0 0 32 32">
<path fill="#86bc42" style="fill: var(--color2, #86bc42)" d="M31.283 25.289l-4.942-4.942c-0.984-0.98-2.614-0.951-3.633 0.068l-2.49 2.489c-0.157-0.087-0.32-0.177-0.491-0.273-1.572-0.871-3.724-2.065-5.989-4.331-2.271-2.271-3.466-4.426-4.34-5.999-0.092-0.167-0.181-0.327-0.268-0.48l2.493-2.491c1.020-1.020 1.048-2.65 0.066-3.633l-4.942-4.943c-0.982-0.982-2.613-0.952-3.633 0.068l-1.393 1.401 0.038 0.038c-0.467 0.596-0.857 1.283-1.148 2.024-0.268 0.705-0.434 1.379-0.511 2.053-0.653 5.41 1.82 10.354 8.528 17.063 9.274 9.273 16.747 8.573 17.070 8.538 0.702-0.084 1.375-0.252 2.059-0.517 0.735-0.287 1.422-0.677 2.017-1.143l0.030 0.027 1.411-1.382c1.018-1.020 1.047-2.65 0.066-3.635z"></path>
</symbol>
<symbol id="icon-Ellipse" viewBox="0 0 32 32">
<path stroke-linejoin="miter" stroke-linecap="butt" stroke-miterlimit="4" stroke-width="1.1429" d="M31.429 16c0 8.521-6.908 15.429-15.429 15.429s-15.429-6.908-15.429-15.429c0-8.521 6.908-15.429 15.429-15.429s15.429 6.908 15.429 15.429z"></path>
</symbol>
<symbol id="icon-enter" viewBox="0 0 44 32">
<path fill="#fff" style="fill: var(--color3, #fff)" d="M0 15.76c0-8.69 7.070-15.76 15.76-15.76s15.76 7.070 15.76 15.76c0 4.59-1.974 8.727-5.115 11.609l0.015 0.013-0.511 0.431c-0.033 0.028-0.069 0.051-0.103 0.079-0.272 0.225-0.553 0.439-0.84 0.646-0.093 0.067-0.186 0.134-0.28 0.199-0.306 0.211-0.62 0.411-0.941 0.601-0.070 0.041-0.14 0.081-0.211 0.121-0.351 0.2-0.71 0.389-1.077 0.562-0.027 0.013-0.054 0.024-0.081 0.037-1.197 0.557-2.475 0.965-3.812 1.206-0.035 0.006-0.070 0.013-0.105 0.019-0.415 0.072-0.834 0.129-1.259 0.167-0.052 0.005-0.103 0.008-0.155 0.012-0.423 0.035-0.85 0.057-1.284 0.057-0.429 0-0.853-0.022-1.273-0.056-0.053-0.005-0.107-0.007-0.16-0.012-0.421-0.038-0.837-0.094-1.248-0.164-0.036-0.006-0.072-0.013-0.107-0.019-1.316-0.236-2.576-0.636-3.758-1.178-0.044-0.020-0.088-0.039-0.131-0.060-0.354-0.166-0.699-0.346-1.038-0.537-0.084-0.047-0.168-0.096-0.252-0.145-0.308-0.182-0.611-0.371-0.906-0.573-0.106-0.072-0.21-0.148-0.315-0.224-0.252-0.181-0.499-0.368-0.739-0.563-0.053-0.043-0.111-0.080-0.163-0.124l-0.524-0.438 0.015-0.013c-3.169-2.884-5.162-7.040-5.162-11.653zM30.374 15.76c0-8.058-6.556-14.614-14.614-14.614s-14.614 6.556-14.614 14.614c0 4.342 1.905 8.246 4.922 10.925 0.168-0.116 0.338-0.221 0.512-0.308l4.852-2.426c0.436-0.218 0.706-0.656 0.706-1.142v-1.695c-0.112-0.139-0.231-0.296-0.354-0.468-0.628-0.887-1.132-1.874-1.499-2.936-0.726-0.345-1.195-1.068-1.195-1.885v-2.032c0-0.497 0.182-0.979 0.508-1.358v-2.675c-0.030-0.298-0.135-1.976 1.079-3.361 1.056-1.206 2.766-1.816 5.082-1.816s4.025 0.61 5.081 1.816c1.214 1.385 1.109 3.064 1.079 3.361v2.675c0.326 0.379 0.508 0.861 0.508 1.358v2.032c0 0.631-0.283 1.22-0.768 1.617-0.464 1.818-1.42 3.195-1.773 3.662v1.658c0 0.468 0.255 0.897 0.666 1.122l4.531 2.472c0.145 0.079 0.288 0.17 0.431 0.273 2.979-2.677 4.857-6.557 4.857-10.868z"></path>
<path fill="#fff" style="fill: var(--color3, #fff)" d="M43.512 16.195c0.24-0.24 0.24-0.63 0-0.87l-3.916-3.916c-0.24-0.24-0.63-0.24-0.87 0s-0.24 0.63 0 0.87l3.481 3.481-3.481 3.481c-0.24 0.24-0.24 0.63 0 0.87s0.63 0.24 0.87 0l3.916-3.916zM34.672 16.375h8.405v-1.231h-8.405v1.231z"></path>
</symbol>
<symbol id="icon-envelope" viewBox="0 0 32 32">
<path fill="#86bc42" style="fill: var(--color2, #86bc42)" d="M3.071 11.179c0.405 0.286 1.625 1.134 3.661 2.545s3.595 2.497 4.679 3.259c0.119 0.084 0.372 0.265 0.759 0.545s0.708 0.506 0.964 0.679c0.256 0.172 0.565 0.366 0.929 0.58s0.705 0.375 1.027 0.482c0.321 0.107 0.619 0.161 0.893 0.161h0.036c0.274 0 0.571-0.053 0.893-0.161 0.321-0.106 0.664-0.268 1.027-0.482s0.672-0.408 0.928-0.58c0.256-0.173 0.577-0.399 0.964-0.679s0.64-0.461 0.759-0.545c1.095-0.762 3.881-2.696 8.357-5.804 0.869-0.607 1.595-1.339 2.178-2.196s0.875-1.756 0.875-2.696c0-0.786-0.283-1.458-0.849-2.018s-1.235-0.839-2.009-0.839h-26.286c-0.917 0-1.622 0.309-2.116 0.928s-0.741 1.393-0.741 2.321c0 0.75 0.328 1.563 0.982 2.438s1.351 1.563 2.089 2.063z"></path>
<path fill="#86bc42" style="fill: var(--color2, #86bc42)" d="M30.214 13.089c-3.904 2.643-6.869 4.696-8.893 6.161-0.679 0.5-1.229 0.89-1.652 1.17s-0.985 0.566-1.688 0.857c-0.702 0.292-1.357 0.437-1.964 0.437h-0.036c-0.607 0-1.262-0.146-1.964-0.437s-1.265-0.577-1.687-0.857c-0.422-0.28-0.973-0.67-1.652-1.17-1.607-1.178-4.566-3.232-8.875-6.161-0.679-0.452-1.28-0.97-1.804-1.554v14.178c0 0.786 0.28 1.459 0.839 2.018s1.232 0.84 2.018 0.84h26.286c0.786 0 1.458-0.28 2.018-0.84s0.839-1.232 0.839-2.018v-14.178c-0.512 0.571-1.107 1.089-1.786 1.554z"></path>
</symbol>
<symbol id="icon-envelope-footer" viewBox="0 0 32 32">
<path fill="none" stroke="#86bc42" style="stroke: var(--color2, #86bc42)" stroke-linejoin="miter" stroke-linecap="butt" stroke-miterlimit="4" stroke-width="0.8421" d="M3.314 10.835l-0 0c0.403 0.284 1.621 1.131 3.658 2.543s3.596 2.497 4.681 3.26c0.122 0.086 0.377 0.269 0.764 0.548h0c0.385 0.278 0.702 0.502 0.953 0.671 0.247 0.167 0.549 0.356 0.907 0.567 0.344 0.203 0.659 0.35 0.946 0.445l0.001 0c0.288 0.096 0.54 0.139 0.759 0.139h0.036c0.219 0 0.472-0.043 0.76-0.139l0.001-0c0.287-0.095 0.602-0.242 0.945-0.445 0.358-0.212 0.66-0.4 0.907-0.567 0.251-0.169 0.568-0.392 0.953-0.671 0.387-0.28 0.642-0.463 0.764-0.548l0.001-0.001c1.095-0.762 3.881-2.696 8.357-5.803 0.828-0.578 1.517-1.274 2.071-2.088v-0c0.541-0.794 0.802-1.612 0.802-2.459 0-0.672-0.237-1.237-0.724-1.719v-0c-0.489-0.484-1.053-0.717-1.713-0.717h-26.286c-0.811 0-1.386 0.268-1.787 0.77l2.244 6.215zM3.314 10.835l-0.007-0.005M3.314 10.835l-0.007-0.005M3.308 10.83c-0.692-0.469-1.356-1.121-1.988-1.966l-0-0M3.308 10.83l-1.988-1.966M1.319 8.864c-0.624-0.834-0.898-1.56-0.898-2.185 0-0.85 0.224-1.527 0.649-2.059l0.249 4.244z"></path>
<path fill="none" stroke="#86bc42" style="stroke: var(--color2, #86bc42)" stroke-linejoin="miter" stroke-linecap="butt" stroke-miterlimit="4" stroke-width="0.8421" d="M30.452 13.437l-0.002 0.001c-3.902 2.641-6.862 4.692-8.88 6.152-0.68 0.501-1.237 0.895-1.668 1.18-0 0-0 0-0 0l-0.232-0.351c-0.423 0.28-0.985 0.565-1.688 0.857l12.47-7.84zM30.452 13.437c0.403-0.276 0.779-0.571 1.127-0.884v13.161c0 0.674-0.235 1.239-0.716 1.72v0c-0.481 0.481-1.047 0.716-1.72 0.716h-26.286c-0.673 0-1.239-0.235-1.72-0.716h-0c-0.481-0.481-0.716-1.047-0.716-1.72v-13.163c0.356 0.319 0.739 0.615 1.148 0.888 4.309 2.928 7.261 4.978 8.861 6.151l20.022-6.153zM16.018 22.135c0.675 0 1.384-0.162 2.125-0.47l-7.465-2.416c0.678 0.5 1.229 0.89 1.652 1.17l-0.232 0.351c0 0 0 0 0 0 0.453 0.3 1.042 0.598 1.758 0.895 0.741 0.308 1.451 0.47 2.126 0.47h0.036z"></path>
</symbol>
<symbol id="icon-facebook" viewBox="0 0 32 32">
<path fill="#86bc42" style="fill: var(--color2, #86bc42)" d="M23.998 0.007l-4.15-0.007c-4.662 0-7.675 3.091-7.675 7.875v3.631h-4.172c-0.361 0-0.652 0.292-0.652 0.653v5.261c0 0.361 0.292 0.652 0.652 0.652h4.172v13.275c0 0.361 0.292 0.652 0.652 0.652h5.444c0.361 0 0.652-0.292 0.652-0.652v-13.275h4.878c0.361 0 0.652-0.292 0.652-0.652l0.002-5.261c0-0.173-0.069-0.339-0.191-0.461s-0.289-0.191-0.462-0.191h-4.88v-3.078c0-1.479 0.353-2.23 2.28-2.23l2.795-0.001c0.36 0 0.652-0.292 0.652-0.652v-4.885c0-0.36-0.292-0.652-0.652-0.652z"></path>
</symbol>
<symbol id="icon-inform" viewBox="0 0 32 32">
<path fill="none" stroke="#86bc42" style="stroke: var(--color2, #86bc42)" stroke-linejoin="miter" stroke-linecap="butt" stroke-miterlimit="4" stroke-width="1.0196" d="M15.804 0.818c8.447 0 15.294 6.848 15.294 15.294 0 8.447-6.847 15.294-15.294 15.294s-15.294-6.847-15.294-15.294c0-8.446 6.847-15.294 15.294-15.294z"></path>
</symbol>
<symbol id="icon-menu-btn" viewBox="0 0 77 32">
<path fill="none" stroke="#86bc42" style="stroke: var(--color2, #86bc42)" stroke-linejoin="miter" stroke-linecap="round" stroke-miterlimit="4" stroke-width="6.4" d="M3.2 3.2h70.4"></path>
<path fill="none" stroke="#86bc42" style="stroke: var(--color2, #86bc42)" stroke-linejoin="miter" stroke-linecap="round" stroke-miterlimit="4" stroke-width="6.4" d="M3.2 16h70.4"></path>
<path fill="none" stroke="#86bc42" style="stroke: var(--color2, #86bc42)" stroke-linejoin="miter" stroke-linecap="round" stroke-miterlimit="4" stroke-width="6.4" d="M3.2 28.8h70.4"></path>
</symbol>
<symbol id="icon-scroll-elipce" viewBox="0 0 32 32">
<path fill="none" stroke="#6e788d" style="stroke: var(--color1, #6e788d)" stroke-linejoin="miter" stroke-linecap="butt" stroke-miterlimit="4" stroke-width="1.5238" d="M0.762 16c0-8.416 6.822-15.238 15.238-15.238s15.238 6.822 15.238 15.238c0 8.416-6.822 15.238-15.238 15.238s-15.238-6.822-15.238-15.238z"></path>
</symbol>
<symbol id="icon-scroll-point" viewBox="0 0 32 32">
<path fill="#6e788d" style="fill: var(--color1, #6e788d)" d="M0 16c0-8.837 7.163-16 16-16s16 7.163 16 16c0 8.837-7.163 16-16 16s-16-7.163-16-16z"></path>
</symbol>
<symbol id="icon-telegram" viewBox="0 0 32 32">
<path fill="#86bc42" style="fill: var(--color2, #86bc42)" d="M31.506 3.179c-0.391-0.478-0.976-0.741-1.649-0.741-0.365 0-0.753 0.077-1.151 0.229l-27.087 10.34c-1.438 0.549-1.631 1.372-1.619 1.814s0.252 1.253 1.719 1.719c0.009 0.003 0.018 0.006 0.026 0.008l5.619 1.608 3.039 8.689c0.414 1.185 1.344 1.92 2.427 1.92 0.683 0 1.354-0.286 1.942-0.827l3.475-3.2 5.041 4.059c0 0 0.001 0.001 0.002 0.001l0.048 0.039c0.004 0.003 0.009 0.007 0.013 0.011 0.56 0.435 1.172 0.664 1.769 0.664h0c1.167 0 2.097-0.864 2.367-2.201l4.438-21.915c0.178-0.88 0.029-1.667-0.421-2.217zM9.244 17.85l10.84-5.538-6.75 7.172c-0.111 0.117-0.189 0.261-0.228 0.418l-1.302 5.272-2.561-7.324zM13.502 26.558c-0.045 0.041-0.090 0.078-0.135 0.112l1.208-4.891 2.197 1.769-3.269 3.010zM30.089 5.023l-4.438 21.915c-0.043 0.21-0.179 0.698-0.53 0.698-0.173 0-0.391-0.094-0.614-0.266l-5.712-4.599c-0.001-0.001-0.002-0.002-0.003-0.002l-3.399-2.737 9.761-10.372c0.313-0.332 0.341-0.841 0.067-1.205s-0.77-0.479-1.176-0.272l-16.054 8.202-5.695-1.629 27.079-10.337c0.229-0.087 0.388-0.106 0.482-0.106 0.057 0 0.159 0.007 0.197 0.053 0.050 0.061 0.113 0.268 0.035 0.657z"></path>
</symbol>
<symbol id="icon-twitter" viewBox="0 0 32 32">
<path fill="#86bc42" style="fill: var(--color2, #86bc42)" d="M31.491 5.787c-0.711 0.315-1.449 0.564-2.206 0.744 0.835-0.793 1.462-1.785 1.816-2.892 0.101-0.316-0.242-0.589-0.528-0.42-1.054 0.625-2.189 1.094-3.373 1.394-0.069 0.017-0.14 0.026-0.211 0.026-0.216 0-0.426-0.080-0.591-0.226-1.261-1.111-2.882-1.723-4.565-1.723-0.728 0-1.464 0.114-2.186 0.337-2.237 0.694-3.963 2.539-4.505 4.816-0.203 0.854-0.258 1.709-0.164 2.54 0.011 0.096-0.034 0.162-0.062 0.194-0.049 0.055-0.118 0.086-0.19 0.086-0.008 0-0.016-0-0.024-0.001-4.897-0.455-9.312-2.814-12.433-6.643-0.159-0.195-0.464-0.171-0.591 0.046-0.611 1.049-0.934 2.248-0.934 3.468 0 1.87 0.751 3.633 2.057 4.918-0.549-0.13-1.080-0.335-1.574-0.609-0.239-0.133-0.532 0.038-0.536 0.311-0.034 2.778 1.593 5.251 4.029 6.364-0.049 0.001-0.098 0.002-0.147 0.002-0.386 0-0.777-0.037-1.162-0.111-0.269-0.051-0.495 0.204-0.411 0.464 0.791 2.469 2.917 4.29 5.462 4.703-2.112 1.418-4.571 2.165-7.13 2.165l-0.798-0.001c-0.246 0-0.454 0.16-0.516 0.398-0.062 0.235 0.052 0.482 0.262 0.604 2.884 1.678 6.174 2.566 9.515 2.566 2.925 0 5.66-0.58 8.131-1.725 2.265-1.049 4.267-2.549 5.949-4.458 1.567-1.778 2.793-3.831 3.643-6.101 0.81-2.164 1.238-4.473 1.238-6.678v-0.105c-0-0.354 0.16-0.687 0.439-0.914 1.060-0.861 1.983-1.874 2.743-3.011 0.201-0.3-0.116-0.677-0.446-0.53z"></path>
</symbol>
<symbol id="icon-arrow-right" viewBox="0 0 245 32">
<path fill="#6e788d" style="fill: var(--color1, #6e788d)" d="M241.508 17.509c0.834-0.833 0.834-2.184 0-3.017l-13.576-13.576c-0.834-0.833-2.184-0.833-3.017 0s-0.833 2.184 0 3.017l12.068 12.068-12.068 12.068c-0.833 0.833-0.833 2.184 0 3.017s2.183 0.833 3.017 0l13.576-13.576zM0 18.133h240v-4.267h-240v4.267z"></path>
</symbol>
<symbol id="icon-arrow-left" viewBox="0 0 245 32">
<path fill="#6e788d" style="fill: var(--color1, #6e788d)" d="M3.825 17.509c-0.833-0.833-0.833-2.184 0-3.017l13.576-13.576c0.833-0.833 2.184-0.833 3.017 0s0.833 2.184 0 3.017l-12.068 12.068 12.068 12.068c0.833 0.833 0.833 2.184 0 3.017s-2.184 0.833-3.017 0l-13.576-13.576zM245.333 18.133h-240v-4.267h240v4.267z"></path>
</symbol>
<symbol id="icon-green-arrow" viewBox="0 0 152 32">
<path fill="#86bc42" style="fill: var(--color1, #86bc42)" d="M149.414 17.414c0.781-0.781 0.781-2.047 0-2.828l-12.728-12.728c-0.781-0.781-2.048-0.781-2.828 0s-0.781 2.047 0 2.828l11.314 11.314-11.314 11.314c-0.781 0.781-0.781 2.047 0 2.828s2.047 0.781 2.828 0l12.728-12.728zM0 18h148v-4h-148v4z"></path>
</symbol>
<symbol id="icon-manual" viewBox="0 0 33 32">
<path fill="#fff" style="fill: var(--color1, #fff)" d="M29.993 17.017c-0.362 0-0.702 0.092-1 0.254-0.304-0.785-1.067-1.343-1.958-1.343-0.576 0-1.099 0.234-1.479 0.611-0.38-0.377-0.902-0.611-1.479-0.611-0.306 0-0.596 0.066-0.858 0.184v-1.794c0.019 0.002 0.039 0.003 0.058 0.003h5.153c1.061 0 1.925-0.863 1.925-1.925v-2.67c0-0.343-0.278-0.621-0.621-0.621s-0.621 0.278-0.621 0.621v2.67c0 0.377-0.306 0.683-0.683 0.683h-5.153c-0.020 0-0.039 0.001-0.058 0.003v-1.329c0-1.158-0.942-2.1-2.1-2.1s-2.1 0.942-2.1 2.1v1.326h-0.895c-0.377 0-0.683-0.306-0.683-0.683v-10.306c0-0.377 0.306-0.683 0.683-0.683h10.306c0.377 0 0.683 0.306 0.683 0.683v2.67c0 0.343 0.278 0.621 0.621 0.621s0.621-0.278 0.621-0.621v-2.67c0-1.061-0.863-1.925-1.925-1.925h-10.306c-1.061 0-1.925 0.863-1.925 1.925v10.306c0 1.061 0.863 1.925 1.925 1.925h0.895v5.266l-2.139 3.136c-0.718 1.052-0.828 2.422-0.287 3.575l2.485 5.297c0.106 0.225 0.329 0.357 0.563 0.357 0.088 0 0.178-0.019 0.263-0.059 0.31-0.146 0.444-0.515 0.298-0.826l-2.485-5.297c-0.355-0.757-0.283-1.657 0.188-2.348l1.114-1.633v1.174c0 0.343 0.278 0.621 0.621 0.621s0.621-0.278 0.621-0.621v-11.211c0-0.473 0.385-0.858 0.858-0.858s0.858 0.385 0.858 0.858v9.17c0 0.343 0.278 0.621 0.621 0.621s0.621-0.278 0.621-0.621v-2.895c0-0.473 0.385-0.858 0.858-0.858s0.858 0.385 0.858 0.858v2.895c0 0.343 0.278 0.621 0.621 0.621s0.621-0.278 0.621-0.621v-2.895c0-0.473 0.385-0.858 0.858-0.858s0.858 0.385 0.858 0.858v2.895c0 0.343 0.278 0.621 0.621 0.621s0.621-0.278 0.621-0.621v-1.805c0-0.473 0.385-0.858 0.858-0.858s0.858 0.385 0.858 0.858v5.19c0 1.382-0.21 2.752-0.623 4.071l-0.868 2.767c-0.103 0.327 0.079 0.675 0.407 0.778 0.062 0.019 0.124 0.029 0.186 0.029 0.264-0 0.509-0.17 0.592-0.435l0.868-2.767c0.451-1.439 0.68-2.934 0.68-4.443v-5.19c0-1.158-0.942-2.1-2.1-2.1z"></path>
<path fill="#fff" style="fill: var(--color1, #fff)" d="M12.538 0.165h-10.306c-1.061 0-1.925 0.863-1.925 1.925v10.306c0 1.061 0.863 1.925 1.925 1.925h2.67c0.343 0 0.621-0.278 0.621-0.621s-0.278-0.621-0.621-0.621h-2.67c-0.377 0-0.683-0.306-0.683-0.683v-10.306c0-0.377 0.306-0.683 0.683-0.683h10.306c0.377 0 0.683 0.306 0.683 0.683v10.306c0 0.377-0.306 0.683-0.683 0.683h-2.67c-0.343 0-0.621 0.278-0.621 0.621s0.278 0.621 0.621 0.621h2.67c1.061 0 1.925-0.863 1.925-1.925v-10.306c0-1.061-0.863-1.925-1.925-1.925z"></path>
<path fill="#fff" style="fill: var(--color1, #fff)" d="M10.004 9.862c0.242-0.242 0.242-0.636 0-0.878l-1.741-1.741 1.741-1.741c0.242-0.242 0.242-0.636 0-0.878s-0.635-0.242-0.878 0l-1.741 1.741-1.741-1.741c-0.242-0.242-0.635-0.242-0.878 0s-0.242 0.636 0 0.878l1.741 1.741-1.741 1.741c-0.242 0.242-0.242 0.636 0 0.878 0.121 0.121 0.28 0.182 0.439 0.182s0.318-0.061 0.439-0.182l1.741-1.741 1.741 1.741c0.121 0.121 0.28 0.182 0.439 0.182s0.318-0.061 0.439-0.182z"></path>
<path fill="#fff" style="fill: var(--color1, #fff)" d="M26.036 4.216l-3.094 3.094-1.299-1.299c-0.242-0.242-0.635-0.242-0.878 0s-0.242 0.636 0 0.878l1.738 1.738c0.121 0.121 0.28 0.182 0.439 0.182s0.318-0.061 0.439-0.182l3.533-3.533c0.242-0.242 0.242-0.636 0-0.878s-0.635-0.242-0.878 0z"></path>
<path fill="#fff" style="fill: var(--color1, #fff)" d="M7.384 13.078c-0.163 0-0.323 0.066-0.439 0.182s-0.182 0.276-0.182 0.439 0.066 0.323 0.182 0.439c0.115 0.116 0.276 0.182 0.439 0.182s0.323-0.066 0.439-0.182c0.115-0.115 0.182-0.276 0.182-0.439s-0.066-0.323-0.182-0.439c-0.115-0.116-0.276-0.182-0.439-0.182z"></path>
<path fill="#fff" style="fill: var(--color1, #fff)" d="M29.734 6.622c-0.163 0-0.323 0.066-0.439 0.182s-0.182 0.276-0.182 0.439c0 0.164 0.066 0.323 0.182 0.439s0.276 0.182 0.439 0.182 0.323-0.066 0.439-0.182c0.116-0.115 0.182-0.276 0.182-0.439s-0.066-0.323-0.182-0.439c-0.115-0.116-0.276-0.182-0.439-0.182z"></path>
</symbol>
<symbol id="icon-reg" viewBox="0 0 31 32">
<path fill="#fff" style="fill: var(--color1, #fff)" d="M25.28 9.702c0.333 0 0.603-0.27 0.603-0.603v-6.554c0-0.997-0.811-1.808-1.808-1.808h-21.939c-0.997 0-1.808 0.811-1.808 1.808v27.243c0 0.997 0.811 1.808 1.808 1.808h21.939c0.997 0 1.808-0.811 1.808-1.808v-4.44c0-0.333-0.27-0.603-0.603-0.603s-0.603 0.27-0.603 0.603v4.44c0 0.332-0.27 0.603-0.603 0.603h-21.939c-0.332 0-0.603-0.27-0.603-0.603v-27.243c0-0.332 0.27-0.603 0.603-0.603h21.939c0.332 0 0.603 0.27 0.603 0.603v6.555c0 0.333 0.27 0.603 0.603 0.603z"></path>
<path fill="#fff" style="fill: var(--color1, #fff)" d="M13.104 3.992c-3.057 0-5.545 2.487-5.545 5.545 0 1.586 0.67 3.019 1.741 4.030 0.020 0.021 0.041 0.042 0.065 0.060 0.987 0.903 2.3 1.454 3.739 1.454s2.753-0.552 3.739-1.454c0.023-0.018 0.045-0.039 0.065-0.060 1.071-1.012 1.741-2.444 1.741-4.030 0-3.057-2.487-5.545-5.545-5.545zM13.104 13.876c-0.984 0-1.892-0.33-2.621-0.884 0.53-0.939 1.518-1.527 2.621-1.527s2.092 0.587 2.621 1.527c-0.729 0.554-1.637 0.884-2.621 0.884zM12.14 9.296v-0.392c0-0.532 0.433-0.964 0.964-0.964s0.964 0.433 0.964 0.964v0.392c0 0.532-0.433 0.964-0.964 0.964s-0.964-0.433-0.964-0.964zM16.596 12.109c-0.445-0.659-1.061-1.172-1.776-1.489 0.284-0.367 0.453-0.826 0.453-1.325v-0.392c0-1.197-0.973-2.17-2.17-2.17s-2.17 0.973-2.17 2.17v0.392c0 0.499 0.17 0.958 0.453 1.325-0.715 0.317-1.331 0.829-1.776 1.489-0.532-0.72-0.847-1.61-0.847-2.573 0-2.393 1.947-4.34 4.34-4.34s4.34 1.947 4.34 4.34c0 0.962-0.315 1.852-0.847 2.573z"></path>
<path fill="#fff" style="fill: var(--color1, #fff)" d="M16.359 27.136h-3.255c-0.333 0-0.603 0.27-0.603 0.603s0.27 0.603 0.603 0.603h3.255c0.333 0 0.603-0.27 0.603-0.603s-0.27-0.603-0.603-0.603z"></path>
<path fill="#fff" style="fill: var(--color1, #fff)" d="M16.359 23.761h-8.559c-0.333 0-0.603 0.27-0.603 0.603s0.27 0.603 0.603 0.603h8.559c0.333 0 0.603-0.27 0.603-0.603s-0.27-0.603-0.603-0.603z"></path>
<path fill="#fff" style="fill: var(--color1, #fff)" d="M16.359 20.386h-8.559c-0.333 0-0.603 0.27-0.603 0.603s0.27 0.603 0.603 0.603h8.559c0.333 0 0.603-0.27 0.603-0.603s-0.27-0.603-0.603-0.603z"></path>
<path fill="#fff" style="fill: var(--color1, #fff)" d="M5.652 17.187c-0.112-0.112-0.268-0.177-0.427-0.177s-0.314 0.064-0.426 0.177c-0.112 0.112-0.177 0.268-0.177 0.426s0.064 0.314 0.177 0.426c0.113 0.112 0.268 0.177 0.426 0.177s0.314-0.064 0.427-0.177c0.112-0.112 0.177-0.268 0.177-0.426s-0.064-0.314-0.177-0.426z"></path>
<path fill="#fff" style="fill: var(--color1, #fff)" d="M5.652 20.562c-0.113-0.112-0.268-0.177-0.427-0.177s-0.313 0.064-0.426 0.177c-0.112 0.112-0.177 0.268-0.177 0.426s0.064 0.314 0.177 0.426c0.113 0.112 0.268 0.177 0.426 0.177s0.314-0.065 0.427-0.177c0.112-0.112 0.177-0.268 0.177-0.426s-0.064-0.314-0.177-0.426z"></path>
<path fill="#fff" style="fill: var(--color1, #fff)" d="M5.652 23.937c-0.113-0.112-0.268-0.177-0.427-0.177s-0.313 0.064-0.426 0.177c-0.112 0.112-0.177 0.268-0.177 0.426s0.064 0.314 0.177 0.426c0.112 0.112 0.268 0.177 0.426 0.177s0.315-0.065 0.427-0.177c0.112-0.112 0.177-0.268 0.177-0.426s-0.064-0.314-0.177-0.426z"></path>
<path fill="#fff" style="fill: var(--color1, #fff)" d="M16.359 17.010h-8.559c-0.333 0-0.603 0.27-0.603 0.603s0.27 0.603 0.603 0.603h8.559c0.333 0 0.603-0.27 0.603-0.603s-0.27-0.603-0.603-0.603z"></path>
<path fill="#fff" style="fill: var(--color1, #fff)" d="M29.919 8.592c-0.586-0.338-1.268-0.428-1.921-0.253s-1.199 0.594-1.537 1.179l-7.585 13.137c-0.042 0.072-0.068 0.152-0.077 0.235l-0.534 4.782c-0.026 0.238 0.090 0.469 0.298 0.589 0.094 0.054 0.198 0.081 0.301 0.081 0.126 0 0.252-0.040 0.357-0.117l3.875-2.854c0.067-0.049 0.123-0.112 0.165-0.184l7.585-13.137c0.698-1.209 0.282-2.76-0.927-3.458zM19.617 26.436l0.279-2.497 1.744 1.007-2.023 1.49zM22.519 24.062l-2.297-1.326 6.086-10.542 2.297 1.326-6.086 10.542zM29.802 11.447l-0.594 1.029-2.297-1.326 0.594-1.029c0.177-0.307 0.463-0.526 0.805-0.618s0.7-0.045 1.006 0.133c0.307 0.177 0.526 0.463 0.618 0.805s0.045 0.699-0.132 1.006z"></path>
</symbol>
<symbol id="icon-allNews" viewBox="0 0 31 32">
<path fill="#fff" style="fill: var(--color1, #fff)" d="M26.178 8.013h-17.226l14.365-5.716c0.331-0.132 0.492-0.507 0.361-0.838s-0.507-0.492-0.838-0.361l-17.361 6.915h-0.49c-2.275 0-4.93 1.289-4.93 4.93v13.301c0 3.641 2.655 4.93 4.93 4.93h21.189c2.275 0 4.93-1.289 4.93-4.93v-13.295c0.006-3.641-2.636-4.937-4.93-4.937zM29.826 26.244c0 3.287-2.578 3.641-3.641 3.641h-21.196c-1.096 0-3.641-0.355-3.641-3.641v-13.295c0-3.287 2.578-3.641 3.641-3.641h21.189c1.096 0 3.641 0.355 3.641 3.641l0.006 13.295z"></path>
<path fill="#fff" style="fill: var(--color1, #fff)" d="M6.439 16.346h18.289c0.356 0 0.645-0.289 0.645-0.645v-3.718c0-0.356-0.289-0.645-0.645-0.645h-18.289c-0.356 0-0.645 0.289-0.645 0.645v3.718c0 0.356 0.289 0.645 0.645 0.645zM24.084 15.057h-4.556v-2.43h4.556v2.43zM7.084 12.627h11.156v2.43h-11.155v-2.43z"></path>
<path fill="#fff" style="fill: var(--color1, #fff)" d="M23.046 18.53c-2.641 0-4.782 2.141-4.782 4.782s2.141 4.782 4.782 4.782c2.641 0 4.782-2.141 4.782-4.782s-2.141-4.782-4.782-4.782zM23.046 26.805c-1.929 0-3.493-1.564-3.493-3.493s1.564-3.493 3.493-3.493c1.929 0 3.493 1.564 3.493 3.493-0.004 1.928-1.566 3.489-3.493 3.493z"></path>
<path fill="#fff" style="fill: var(--color1, #fff)" d="M13.76 22.996c-1.363 0-2.468 1.105-2.468 2.468s1.105 2.468 2.468 2.468 2.468-1.105 2.468-2.468c0-1.363-1.105-2.468-2.468-2.468zM13.76 26.638c-0.651 0-1.179-0.528-1.179-1.179s0.528-1.18 1.179-1.18c0.652 0 1.179 0.528 1.179 1.18 0 0.651-0.527 1.179-1.179 1.179z"></path>
<path fill="#fff" style="fill: var(--color1, #fff)" d="M7.367 22.996c-1.363 0-2.468 1.105-2.468 2.468s1.105 2.468 2.468 2.468 2.468-1.105 2.468-2.468c0-1.363-1.105-2.468-2.468-2.468zM7.367 26.638c-0.651 0-1.179-0.528-1.179-1.179s0.528-1.18 1.179-1.18 1.179 0.528 1.179 1.18c0 0.651-0.528 1.179-1.179 1.179z"></path>
</symbol>
</defs>
</svg>
