<svg width="44" height="45" viewBox="0 0 44 45" fill="none" xmlns="http://www.w3.org/2000/svg">
<g clip-path="url(#clip0)">
<path d="M36.8135 11.2684H12.5895L32.7898 3.23001C33.2556 3.04504 33.4821 2.51762 33.2975 2.05185C33.1125 1.58607 32.5851 1.35956 32.1193 1.54419L7.70492 11.2684H7.01631C3.81724 11.2684 0.083374 13.0809 0.083374 18.2013V36.9062C0.083374 42.0267 3.81724 43.8391 7.01631 43.8391H36.8135C40.0126 43.8391 43.7465 42.0267 43.7465 36.9062V18.2104C43.7555 13.0899 40.0398 11.2684 36.8135 11.2684ZM41.9431 36.9062C41.9431 41.5281 38.3181 42.0267 36.8226 42.0267H7.01631C5.47559 42.0267 1.89586 41.5281 1.89586 36.9062V18.2104C1.89586 13.5885 5.52082 13.0899 7.01631 13.0899H36.8135C38.3543 13.0899 41.934 13.5885 41.934 18.2104L41.9431 36.9062Z" fill="white"/>
<path d="M9.05521 22.9864H34.7744C35.2747 22.9864 35.6809 22.5803 35.6809 22.08V16.8509C35.6809 16.3507 35.2747 15.9445 34.7744 15.9445H9.05521C8.55493 15.9445 8.1488 16.3507 8.1488 16.8509V22.08C8.1488 22.5803 8.55493 22.9864 9.05521 22.9864ZM33.8684 21.1736H27.4612V17.757H33.8684V21.1736ZM9.96129 17.757H25.6487V21.1736H9.96129V17.757Z" fill="white"/>
<path d="M32.4091 26.0584C28.6954 26.0584 25.6849 29.0688 25.6849 32.7826C25.6849 36.4967 28.6954 39.5071 32.4091 39.5071C36.1232 39.5071 39.1336 36.4967 39.1336 32.7826C39.1336 29.0688 36.1229 26.0584 32.4091 26.0584ZM32.4091 37.6946C29.6969 37.6946 27.4974 35.4951 27.4974 32.7826C27.4974 30.0704 29.6969 27.8709 32.4091 27.8709C35.1216 27.8709 37.3211 30.0704 37.3211 32.7826C37.3158 35.4935 35.1196 37.6893 32.4091 37.6946Z" fill="white"/>
<path d="M19.3501 32.3386C17.4334 32.3386 15.8793 33.8931 15.8793 35.8095C15.8793 37.7265 17.4334 39.2806 19.3501 39.2806C21.2668 39.2806 22.8213 37.7262 22.8213 35.8095C22.8213 33.8921 21.2668 32.3386 19.3501 32.3386ZM19.3501 37.4591C18.434 37.4591 17.6918 36.7169 17.6918 35.8008C17.6918 34.8843 18.434 34.1421 19.3501 34.1421C20.2666 34.1421 21.0084 34.8843 21.0084 35.8008C21.0084 36.7159 20.2666 37.4591 19.3501 37.4591Z" fill="white"/>
<path d="M10.3601 32.3386C8.44341 32.3386 6.88928 33.8931 6.88928 35.8095C6.88928 37.7265 8.44341 39.2806 10.3601 39.2806C12.2768 39.2806 13.8309 37.7262 13.8309 35.8095C13.8313 33.8921 12.2768 32.3386 10.3601 32.3386ZM10.3601 37.4591C9.44398 37.4591 8.70177 36.7169 8.70177 35.8008C8.70177 34.8843 9.44398 34.1421 10.3601 34.1421C11.2762 34.1421 12.0185 34.8843 12.0185 35.8008C12.0185 36.7169 11.2762 37.4591 10.3601 37.4591Z" fill="white"/>
</g>
<defs>
<clipPath id="clip0">
<rect width="43.6881" height="43.6881" fill="white" transform="translate(0.083374 0.769043)"/>
</clipPath>
</defs>
</svg>
