<svg width="42" height="41" viewBox="0 0 42 41" fill="none" xmlns="http://www.w3.org/2000/svg">
<g clip-path="url(#clip0)">
<path d="M38.4286 21.803C37.9652 21.803 37.5288 21.9207 37.1478 22.128C36.758 21.1221 35.7806 20.4067 34.6388 20.4067C33.9003 20.4067 33.2305 20.7059 32.7438 21.1893C32.2572 20.7059 31.5875 20.4067 30.849 20.4067C30.4574 20.4067 30.0854 20.4914 29.7495 20.6425V18.3438C29.774 18.3461 29.7989 18.3475 29.824 18.3475H36.426C37.7858 18.3475 38.8919 17.2414 38.8919 15.8817V12.4613C38.8919 12.022 38.5357 11.6658 38.0964 11.6658C37.6572 11.6658 37.301 12.022 37.301 12.4613V15.8818C37.301 16.3642 36.9085 16.7567 36.426 16.7567H29.824C29.7989 16.7567 29.7741 16.7583 29.7495 16.7605V15.0572C29.7495 13.5738 28.5426 12.3669 27.0592 12.3669C25.5758 12.3669 24.3689 13.5738 24.3689 15.0572V16.7567H23.2219C22.7395 16.7567 22.347 16.3642 22.347 15.8818V2.67766C22.347 2.19523 22.7395 1.80269 23.2219 1.80269H36.426C36.9085 1.80269 37.301 2.19523 37.301 2.67766V6.098C37.301 6.53724 37.6572 6.89343 38.0964 6.89343C38.5357 6.89343 38.8919 6.53724 38.8919 6.098V2.67766C38.8919 1.31795 37.7858 0.211828 36.426 0.211828H23.2219C21.8622 0.211828 20.7561 1.31795 20.7561 2.67766V15.8818C20.7561 17.2415 21.8622 18.3476 23.2219 18.3476H24.3689V25.0943L21.6277 29.1127C20.7079 30.4609 20.5673 32.2163 21.2603 33.6937L24.4441 40.4802C24.5795 40.7687 24.8659 40.9379 25.1648 40.9379C25.278 40.9379 25.3929 40.9137 25.5021 40.8625C25.8998 40.6759 26.0709 40.2022 25.8845 39.8045L22.7007 33.0181C22.2454 32.0477 22.3378 30.8947 22.9419 30.0092L24.3689 27.9173V29.4212C24.3689 29.8604 24.7251 30.2166 25.1643 30.2166C25.6035 30.2166 25.9597 29.8604 25.9597 29.4212V15.0572C25.9597 14.451 26.4529 13.9578 27.0592 13.9578C27.6654 13.9578 28.1587 14.451 28.1587 15.0572V26.8063C28.1587 27.2455 28.5149 27.6017 28.9541 27.6017C29.3933 27.6017 29.7495 27.2455 29.7495 26.8063V23.097C29.7495 22.4908 30.2427 21.9976 30.849 21.9976C31.4553 21.9976 31.9484 22.4908 31.9484 23.097V26.8063C31.9484 27.2455 32.3046 27.6017 32.7438 27.6017C33.1831 27.6017 33.5393 27.2455 33.5393 26.8063V23.097C33.5393 22.4908 34.0325 21.9976 34.6388 21.9976C35.2451 21.9976 35.7382 22.4908 35.7382 23.097V26.8063C35.7382 27.2455 36.0944 27.6017 36.5337 27.6017C36.9729 27.6017 37.3291 27.2455 37.3291 26.8063V24.4934C37.3291 23.8871 37.8223 23.394 38.4286 23.394C39.0349 23.394 39.5281 23.8871 39.5281 24.4934V31.1432C39.5281 32.9145 39.2594 34.6695 38.7294 36.3594L37.6177 39.9044C37.4863 40.3235 37.7195 40.7699 38.1387 40.9014C38.2179 40.9262 38.2981 40.938 38.3769 40.938C38.7153 40.9379 39.0291 40.7203 39.1357 40.3803L40.2474 36.8354C40.8257 34.9912 41.1189 33.076 41.1189 31.1431V24.4933C41.1189 23.0099 39.9121 21.803 38.4286 21.803Z" fill="white"/>
<path d="M16.0639 0.211853H2.85975C1.50004 0.211853 0.393921 1.31798 0.393921 2.67768V15.8818C0.393921 17.2415 1.50004 18.3476 2.85975 18.3476H6.28009C6.71933 18.3476 7.07552 17.9914 7.07552 17.5522C7.07552 17.113 6.71933 16.7568 6.28009 16.7568H2.85975C2.37732 16.7568 1.98478 16.3642 1.98478 15.8818V2.67768C1.98478 2.19525 2.37732 1.80271 2.85975 1.80271H16.0639C16.5463 1.80271 16.9388 2.19525 16.9388 2.67768V15.8818C16.9388 16.3642 16.5463 16.7568 16.0639 16.7568H12.6435C12.2043 16.7568 11.8481 17.113 11.8481 17.5522C11.8481 17.9914 12.2043 18.3476 12.6435 18.3476H16.0639C17.4236 18.3476 18.5297 17.2415 18.5297 15.8818V2.67768C18.5297 1.31798 17.4236 0.211853 16.0639 0.211853Z" fill="white"/>
<path d="M12.817 12.6357C13.1276 12.3251 13.1276 11.8214 12.817 11.5107L10.5859 9.27979L12.817 7.04876C13.1276 6.73814 13.1276 6.23447 12.817 5.92378C12.5064 5.61332 12.0029 5.61316 11.692 5.92378L9.46092 8.15481L7.22989 5.92378C6.9192 5.61324 6.41569 5.61324 6.10491 5.92378C5.79429 6.23439 5.79429 6.73806 6.10491 7.04876L8.33602 9.27979L6.10491 11.5108C5.79429 11.8214 5.79429 12.3251 6.10491 12.6358C6.26026 12.7911 6.46381 12.8688 6.66736 12.8688C6.87091 12.8688 7.07446 12.7911 7.22981 12.6358L9.46092 10.4048L11.692 12.6358C11.8474 12.7911 12.0509 12.8688 12.2545 12.8688C12.458 12.8688 12.6617 12.7911 12.817 12.6357Z" fill="white"/>
<path d="M33.3585 5.40191L29.3946 9.36579L27.7304 7.70159C27.4197 7.39105 26.9162 7.39105 26.6054 7.70159C26.2948 8.0122 26.2948 8.51587 26.6054 8.82657L28.8321 11.0532C28.9874 11.2085 29.191 11.2862 29.3945 11.2862C29.5981 11.2862 29.8016 11.2085 29.957 11.0532L34.4833 6.52689C34.7939 6.21627 34.7939 5.7126 34.4833 5.40191C34.1727 5.09137 33.6692 5.09137 33.3585 5.40191Z" fill="white"/>
<path d="M9.46096 16.7564C9.25176 16.7564 9.04654 16.8415 8.89859 16.9896C8.75064 17.1374 8.66553 17.3427 8.66553 17.5519C8.66553 17.7611 8.75056 17.9663 8.89859 18.1142C9.04654 18.263 9.25176 18.3473 9.46096 18.3473C9.67016 18.3473 9.87538 18.263 10.0233 18.1142C10.1712 17.9663 10.2564 17.7611 10.2564 17.5519C10.2564 17.3427 10.1713 17.1374 10.0233 16.9896C9.87538 16.8415 9.67016 16.7564 9.46096 16.7564Z" fill="white"/>
<path d="M38.0963 8.48397C37.8871 8.48397 37.6819 8.56908 37.534 8.71711C37.386 8.86499 37.3009 9.07021 37.3009 9.27941C37.3009 9.48948 37.3859 9.69383 37.534 9.84178C37.6819 9.99052 37.8871 10.0748 38.0963 10.0748C38.3055 10.0748 38.5108 9.99052 38.6586 9.84178C38.8066 9.69383 38.8918 9.48861 38.8918 9.27941C38.8918 9.07021 38.8067 8.86499 38.6586 8.71711C38.5108 8.56908 38.3055 8.48397 38.0963 8.48397Z" fill="white"/>
</g>
<defs>
<clipPath id="clip0">
<rect width="40.7262" height="40.7262" fill="white" transform="translate(0.392944 0.211853)"/>
</clipPath>
</defs>
</svg>
