<svg width="42" height="43" viewBox="0 0 42 43" fill="none" xmlns="http://www.w3.org/2000/svg">
<g clip-path="url(#clip0)">
<path d="M33.9694 13.0377C34.4166 13.0377 34.7793 12.6751 34.7793 12.2278V3.42017C34.7793 2.08044 33.6893 0.990479 32.3496 0.990479H2.86938C1.52966 0.990479 0.439697 2.08044 0.439697 3.42017V40.0275C0.439697 41.3672 1.52966 42.4571 2.86938 42.4571H32.3496C33.6893 42.4571 34.7793 41.3672 34.7793 40.0275V34.0608C34.7793 33.6135 34.4166 33.2509 33.9694 33.2509C33.5222 33.2509 33.1595 33.6135 33.1595 34.0608V40.0275C33.1595 40.474 32.7962 40.8374 32.3496 40.8374H2.86938C2.42281 40.8374 2.05949 40.474 2.05949 40.0275V3.42017C2.05949 2.97359 2.42281 2.61027 2.86938 2.61027H32.3496C32.7962 2.61027 33.1595 2.97359 33.1595 3.42017V12.2278C33.1595 12.6751 33.5222 13.0377 33.9694 13.0377Z" fill="white"/>
<path d="M17.6086 5.3639C13.5001 5.3639 10.1576 8.70642 10.1576 12.8149C10.1576 14.9463 11.0574 16.8713 12.4967 18.2306C12.5237 18.2595 12.5524 18.2868 12.5837 18.3116C13.9096 19.5248 15.6741 20.2659 17.6086 20.2659C19.543 20.2659 21.3075 19.5247 22.6334 18.3116C22.6647 18.2868 22.6934 18.2594 22.7204 18.2306C24.1599 16.8713 25.0597 14.9463 25.0597 12.8149C25.0597 8.70642 21.7172 5.3639 17.6086 5.3639ZM17.6086 18.6462C16.2862 18.6462 15.0656 18.203 14.0863 17.4582C14.7981 16.196 16.1264 15.4066 17.6086 15.4066C19.0908 15.4066 20.4191 16.196 21.131 17.4582C20.1515 18.203 18.9311 18.6462 17.6086 18.6462ZM16.3128 12.491V11.9646C16.3128 11.2501 16.8941 10.6687 17.6086 10.6687C18.3231 10.6687 18.9045 11.2501 18.9045 11.9646V12.491C18.9045 13.2055 18.3231 13.7868 17.6086 13.7868C16.8941 13.7868 16.3128 13.2055 16.3128 12.491ZM22.3012 16.2718C21.7039 15.386 20.8761 14.697 19.915 14.2716C20.2964 13.7786 20.5243 13.1611 20.5243 12.491V11.9646C20.5243 10.3568 19.2164 9.04893 17.6086 9.04893C16.0009 9.04893 14.693 10.3568 14.693 11.9646V12.491C14.693 13.1611 14.9208 13.7786 15.3023 14.2716C14.3412 14.697 13.5134 15.386 12.9161 16.2718C12.201 15.3038 11.7774 14.1081 11.7774 12.8149C11.7774 9.59958 14.3933 6.98369 17.6086 6.98369C20.824 6.98369 23.4399 9.59958 23.4399 12.8149C23.4399 14.1081 23.0162 15.3038 22.3012 16.2718Z" fill="white"/>
<path d="M21.982 36.4639H17.6086C17.1614 36.4639 16.7987 36.8265 16.7987 37.2738C16.7987 37.7211 17.1614 38.0837 17.6086 38.0837H21.982C22.4293 38.0837 22.7919 37.7211 22.7919 37.2738C22.7919 36.8265 22.4293 36.4639 21.982 36.4639Z" fill="white"/>
<path d="M21.982 31.9285H10.4815C10.0343 31.9285 9.67163 32.2911 9.67163 32.7384C9.67163 33.1857 10.0343 33.5483 10.4815 33.5483H21.982C22.4293 33.5483 22.7919 33.1857 22.7919 32.7384C22.7919 32.2911 22.4293 31.9285 21.982 31.9285Z" fill="white"/>
<path d="M21.982 27.3931H10.4815C10.0343 27.3931 9.67163 27.7557 9.67163 28.203C9.67163 28.6503 10.0343 29.0129 10.4815 29.0129H21.982C22.4293 29.0129 22.7919 28.6503 22.7919 28.203C22.7919 27.7557 22.4293 27.3931 21.982 27.3931Z" fill="white"/>
<path d="M7.59489 23.0949C7.44433 22.9443 7.23538 22.8577 7.02157 22.8577C6.80848 22.8577 6.59953 22.9443 6.44897 23.0949C6.29833 23.2456 6.21167 23.4545 6.21167 23.6675C6.21167 23.8805 6.29825 24.0895 6.44897 24.2401C6.60042 24.3908 6.80848 24.4774 7.02157 24.4774C7.23538 24.4774 7.44352 24.3908 7.59489 24.2401C7.74553 24.0895 7.83227 23.8805 7.83227 23.6675C7.83227 23.4545 7.74561 23.2456 7.59489 23.0949Z" fill="white"/>
<path d="M7.59489 27.6304C7.44352 27.4797 7.23538 27.3931 7.02157 27.3931C6.80848 27.3931 6.60042 27.4797 6.44897 27.6304C6.29833 27.781 6.21167 27.99 6.21167 28.203C6.21167 28.416 6.29825 28.6249 6.44897 28.7756C6.60042 28.9262 6.80848 29.0129 7.02157 29.0129C7.23538 29.0129 7.44352 28.9262 7.59489 28.7756C7.74553 28.6249 7.83227 28.416 7.83227 28.203C7.83227 27.99 7.74561 27.781 7.59489 27.6304Z" fill="white"/>
<path d="M7.59489 32.1658C7.44352 32.0151 7.23538 31.9285 7.02157 31.9285C6.80848 31.9285 6.60042 32.0151 6.44897 32.1658C6.29833 32.3164 6.21167 32.5254 6.21167 32.7384C6.21167 32.9514 6.29825 33.1603 6.44897 33.311C6.59953 33.4616 6.80848 33.5483 7.02157 33.5483C7.23538 33.5483 7.44433 33.4616 7.59489 33.311C7.74553 33.1603 7.83227 32.9514 7.83227 32.7384C7.83227 32.5254 7.74561 32.3164 7.59489 32.1658Z" fill="white"/>
<path d="M21.982 22.8577H10.4815C10.0343 22.8577 9.67163 23.2202 9.67163 23.6675C9.67163 24.1149 10.0343 24.4774 10.4815 24.4774H21.982C22.4293 24.4774 22.7919 24.1149 22.7919 23.6675C22.7919 23.2202 22.4293 22.8577 21.982 22.8577Z" fill="white"/>
<path d="M40.2042 11.545C39.4174 11.0908 38.5008 10.9701 37.623 11.2052C36.7454 11.4404 36.0118 12.0033 35.5576 12.7901L25.3657 30.4428C25.3099 30.5396 25.2746 30.6469 25.2622 30.7579L24.5448 37.184C24.5092 37.5037 24.6661 37.8143 24.9447 37.9752C25.0705 38.0478 25.2102 38.0838 25.3496 38.0838C25.519 38.0838 25.6878 38.0307 25.8299 37.926L31.0363 34.0916C31.1263 34.0254 31.2016 33.9412 31.2574 33.8445L41.4492 16.1917C42.387 14.5674 41.8285 12.4829 40.2042 11.545ZM26.3599 35.5239L26.7346 32.1684L29.0786 33.5217L26.3599 35.5239ZM30.2596 32.3331L27.1735 30.5513L35.3522 16.3855L38.4383 18.1672L30.2596 32.3331ZM40.0464 15.3817L39.2481 16.7645L36.162 14.9827L36.9603 13.6C37.1983 13.1878 37.5825 12.893 38.0422 12.7698C38.5021 12.6466 38.9822 12.7099 39.3942 12.9479C39.8064 13.1858 40.1012 13.57 40.2244 14.0297C40.3476 14.4894 40.2844 14.9696 40.0464 15.3817Z" fill="white"/>
</g>
<defs>
<clipPath id="clip0">
<rect width="41.4667" height="41.4667" fill="white" transform="translate(0.438232 0.990479)"/>
</clipPath>
</defs>
</svg>
